<mxfile host="app.diagrams.net" modified="2024-02-13T16:34:08.576Z" agent="Mozilla/5.0 (Windows NT 10.0; Win64; x64) AppleWebKit/537.36 (KHTML, like Gecko) Chrome/121.0.0.0 Safari/537.36" etag="sLZRFIJmj74b2XO8Sw2i" version="23.1.4" type="github">
  <diagram name="Страница — 1" id="NI1FXre34gQgewwY15hS">
    <mxGraphModel dx="989" dy="514" grid="0" gridSize="10" guides="1" tooltips="1" connect="1" arrows="1" fold="1" page="1" pageScale="1" pageWidth="827" pageHeight="1169" math="0" shadow="0">
      <root>
        <mxCell id="0" />
        <mxCell id="1" parent="0" />
        <mxCell id="oiHtKV0d4ygHTh5KHGC5-16" value="" style="rounded=0;whiteSpace=wrap;html=1;" parent="1" vertex="1">
          <mxGeometry x="90" y="530" width="350" height="330" as="geometry" />
        </mxCell>
        <mxCell id="oiHtKV0d4ygHTh5KHGC5-22" style="edgeStyle=orthogonalEdgeStyle;rounded=0;orthogonalLoop=1;jettySize=auto;html=1;exitX=0.5;exitY=1;exitDx=0;exitDy=0;entryX=0.5;entryY=0;entryDx=0;entryDy=0;startArrow=classic;startFill=1;" parent="1" source="oiHtKV0d4ygHTh5KHGC5-18" target="oiHtKV0d4ygHTh5KHGC5-19" edge="1">
          <mxGeometry relative="1" as="geometry" />
        </mxCell>
        <mxCell id="oiHtKV0d4ygHTh5KHGC5-18" value="UI" style="rounded=0;whiteSpace=wrap;html=1;" parent="1" vertex="1">
          <mxGeometry x="90" y="570" width="120" height="60" as="geometry" />
        </mxCell>
        <mxCell id="oiHtKV0d4ygHTh5KHGC5-24" style="edgeStyle=orthogonalEdgeStyle;rounded=0;orthogonalLoop=1;jettySize=auto;html=1;exitX=1;exitY=0.5;exitDx=0;exitDy=0;entryX=0;entryY=0.5;entryDx=0;entryDy=0;startArrow=classic;startFill=1;" parent="1" source="oiHtKV0d4ygHTh5KHGC5-21" target="oiHtKV0d4ygHTh5KHGC5-20" edge="1">
          <mxGeometry relative="1" as="geometry" />
        </mxCell>
        <mxCell id="oiHtKV0d4ygHTh5KHGC5-19" value="&amp;nbsp;Контроллер клиента" style="rounded=0;whiteSpace=wrap;html=1;" parent="1" vertex="1">
          <mxGeometry x="90" y="670" width="120" height="60" as="geometry" />
        </mxCell>
        <mxCell id="qMH69CnF4xTGIKaCLoIV-2" style="edgeStyle=orthogonalEdgeStyle;rounded=0;orthogonalLoop=1;jettySize=auto;html=1;exitX=1;exitY=0.5;exitDx=0;exitDy=0;entryX=0;entryY=0.5;entryDx=0;entryDy=0;startArrow=classic;startFill=1;" edge="1" parent="1" source="oiHtKV0d4ygHTh5KHGC5-20" target="qMH69CnF4xTGIKaCLoIV-1">
          <mxGeometry relative="1" as="geometry" />
        </mxCell>
        <mxCell id="oiHtKV0d4ygHTh5KHGC5-20" value="Компонент для отправки запросов" style="rounded=0;whiteSpace=wrap;html=1;" parent="1" vertex="1">
          <mxGeometry x="320" y="670" width="120" height="60" as="geometry" />
        </mxCell>
        <mxCell id="oiHtKV0d4ygHTh5KHGC5-23" style="edgeStyle=orthogonalEdgeStyle;rounded=0;orthogonalLoop=1;jettySize=auto;html=1;exitX=0.5;exitY=0;exitDx=0;exitDy=0;entryX=0.5;entryY=1;entryDx=0;entryDy=0;startArrow=classic;startFill=1;endArrow=classic;endFill=1;" parent="1" source="oiHtKV0d4ygHTh5KHGC5-21" target="oiHtKV0d4ygHTh5KHGC5-19" edge="1">
          <mxGeometry relative="1" as="geometry" />
        </mxCell>
        <mxCell id="oiHtKV0d4ygHTh5KHGC5-21" value="Модель клиента" style="rounded=0;whiteSpace=wrap;html=1;" parent="1" vertex="1">
          <mxGeometry x="90" y="770" width="120" height="60" as="geometry" />
        </mxCell>
        <mxCell id="oiHtKV0d4ygHTh5KHGC5-26" value="" style="rounded=0;whiteSpace=wrap;html=1;" parent="1" vertex="1">
          <mxGeometry x="540" y="580" width="270" height="270" as="geometry" />
        </mxCell>
        <mxCell id="oiHtKV0d4ygHTh5KHGC5-15" value="База данных" style="shape=datastore;whiteSpace=wrap;html=1;" parent="1" vertex="1">
          <mxGeometry x="730" y="670" width="60" height="60" as="geometry" />
        </mxCell>
        <mxCell id="qMH69CnF4xTGIKaCLoIV-3" style="edgeStyle=orthogonalEdgeStyle;rounded=0;orthogonalLoop=1;jettySize=auto;html=1;exitX=1;exitY=0.5;exitDx=0;exitDy=0;entryX=0;entryY=0.5;entryDx=0;entryDy=0;startArrow=none;startFill=0;" edge="1" parent="1" source="qMH69CnF4xTGIKaCLoIV-1" target="oiHtKV0d4ygHTh5KHGC5-15">
          <mxGeometry relative="1" as="geometry" />
        </mxCell>
        <mxCell id="qMH69CnF4xTGIKaCLoIV-1" value="Компонент для обработки запросов" style="rounded=0;whiteSpace=wrap;html=1;" vertex="1" parent="1">
          <mxGeometry x="540" y="670" width="100" height="60" as="geometry" />
        </mxCell>
        <mxCell id="qMH69CnF4xTGIKaCLoIV-4" value="&lt;font style=&quot;font-size: 24px;&quot;&gt;Клиент&lt;/font&gt;" style="text;html=1;align=center;verticalAlign=middle;whiteSpace=wrap;rounded=0;" vertex="1" parent="1">
          <mxGeometry x="290" y="550" width="100" height="50" as="geometry" />
        </mxCell>
        <mxCell id="qMH69CnF4xTGIKaCLoIV-5" value="&lt;font style=&quot;font-size: 24px;&quot;&gt;Сервер&lt;/font&gt;" style="text;html=1;align=center;verticalAlign=middle;whiteSpace=wrap;rounded=0;" vertex="1" parent="1">
          <mxGeometry x="645" y="610" width="60" height="30" as="geometry" />
        </mxCell>
      </root>
    </mxGraphModel>
  </diagram>
</mxfile>
